<svg xmlns="http://www.w3.org/2000/svg" xmlns:svg="http://www.w3.org/2000/svg" xmlns:xlink="http://www.w3.org/1999/xlink" width="44" height="44" version="1.0" viewBox="0 0 128 128" xml:space="preserve"><rect width="100%" height="100%" x="0" y="0" fill="transparent"/><g><path fill="#0162e8" fill-opacity="1" d="M40.73 13.1l-4.04-7A63.67 63.67 0 0 1 61.5.06v8a55.83 55.83 0 0 0-20.77 5.05z"/><path fill="#f8fbfe" fill-opacity=".03" d="M40.73 13.1l-4.04-7A63.67 63.67 0 0 1 61.5.06v8a55.83 55.83 0 0 0-20.77 5.05z" transform="rotate(30 64 64)"/><path fill="#e8f1fd" fill-opacity=".09" d="M40.73 13.1l-4.04-7A63.67 63.67 0 0 1 61.5.06v8a55.83 55.83 0 0 0-20.77 5.05z" transform="rotate(60 64 64)"/><path fill="#d4e5fb" fill-opacity=".17" d="M40.73 13.1l-4.04-7A63.67 63.67 0 0 1 61.5.06v8a55.83 55.83 0 0 0-20.77 5.05z" transform="rotate(90 64 64)"/><path fill="#bed7f9" fill-opacity=".25" d="M40.73 13.1l-4.04-7A63.67 63.67 0 0 1 61.5.06v8a55.83 55.83 0 0 0-20.77 5.05z" transform="rotate(120 64 64)"/><path fill="#a6c8f7" fill-opacity=".35" d="M40.73 13.1l-4.04-7A63.67 63.67 0 0 1 61.5.06v8a55.83 55.83 0 0 0-20.77 5.05z" transform="rotate(150 64 64)"/><path fill="#8eb9f5" fill-opacity=".44" d="M40.73 13.1l-4.04-7A63.67 63.67 0 0 1 61.5.06v8a55.83 55.83 0 0 0-20.77 5.05z" transform="rotate(180 64 64)"/><path fill="#74a9f2" fill-opacity=".55" d="M40.73 13.1l-4.04-7A63.67 63.67 0 0 1 61.5.06v8a55.83 55.83 0 0 0-20.77 5.05z" transform="rotate(210 64 64)"/><path fill="#5b99f0" fill-opacity=".65" d="M40.73 13.1l-4.04-7A63.67 63.67 0 0 1 61.5.06v8a55.83 55.83 0 0 0-20.77 5.05z" transform="rotate(240 64 64)"/><path fill="#428aee" fill-opacity=".75" d="M40.73 13.1l-4.04-7A63.67 63.67 0 0 1 61.5.06v8a55.83 55.83 0 0 0-20.77 5.05z" transform="rotate(270 64 64)"/><path fill="#2b7cec" fill-opacity=".84" d="M40.73 13.1l-4.04-7A63.67 63.67 0 0 1 61.5.06v8a55.83 55.83 0 0 0-20.77 5.05z" transform="rotate(300 64 64)"/><path fill="#166fea" fill-opacity=".92" d="M40.73 13.1l-4.04-7A63.67 63.67 0 0 1 61.5.06v8a55.83 55.83 0 0 0-20.77 5.05z" transform="rotate(330 64 64)"/><animateTransform attributeName="transform" calcMode="discrete" dur="1080ms" repeatCount="indefinite" type="rotate" values="0 64 64;30 64 64;60 64 64;90 64 64;120 64 64;150 64 64;180 64 64;210 64 64;240 64 64;270 64 64;300 64 64;330 64 64"/></g></svg>